<?xml version="1.0" encoding="UTF-8"?>
<svg width="1024" height="1024" viewBox="0 0 1024 1024"
     xmlns="http://www.w3.org/2000/svg" role="img" aria-label="Aclaud Technologies LLC stylized A">
  <defs>
    <linearGradient id="accent" x1="0" x2="1" y1="0" y2="1">
      <stop offset="0%" stop-color="#1FB8FF"/>
      <stop offset="100%" stop-color="#0066CC"/>
    </linearGradient>
    <linearGradient id="shadow" x1="0" x2="1" y1="0" y2="1">
      <stop offset="0%" stop-color="#0b3b5a"/>
      <stop offset="100%" stop-color="#042635"/>
    </linearGradient>

    <!-- Optional rounded-square mask for favicon previews -->
    <mask id="rounded">
      <rect x="0" y="0" width="1024" height="1024" rx="160" ry="160" fill="white"/>
    </mask>

    <!-- subtle outer glow for digital display -->
    <filter id="glow" x="-50%" y="-50%" width="200%" height="200%">
      <feGaussianBlur stdDeviation="18" result="blur"/>
      <feMerge>
        <feMergeNode in="blur"/>
        <feMergeNode in="SourceGraphic"/>
      </feMerge>
    </filter>
  </defs>

  <!-- Transparent background (keeps clean for browser icon usage) -->
  <rect width="100%" height="100%" fill="transparent"/>

  <!-- Main stylized 'A' centered -->
  <g transform="translate(0,0)">
    <!-- Left leg -->
    <path d="M240 820 L450 220 L510 220 L300 820 Z" fill="url(#shadow)"/>
    <!-- Right leg -->
    <path d="M784 820 L574 220 L514 220 L724 820 Z" fill="url(#shadow)"/>

    <!-- Inner cutout to make negative space 'A' and give a sleek triangular aperture -->
    <path d="M380 740 L512 320 L644 740 Z" fill="white"/>

    <!-- Curved crossbar (cloud-like curve) -->
    <path d="M260 560 C360 500, 420 480, 512 500 C604 520, 660 560, 760 520 L740 600 C660 640, 604 620, 512 600 C420 580, 360 620, 260 560 Z"
          fill="url(#accent)" filter="url(#glow)" opacity="0.98"/>

    <!-- Thin stroke outline for polish -->
    <path d="M240 820 L450 220 L574 220 L784 820 L724 820 L512 320 L300 820 Z"
          fill="none" stroke="rgba(0,0,0,0.06)" stroke-width="12" stroke-linejoin="round"/>
  </g>

  <!-- Provide a compact centered symbol (for favicon preview) inside a rounded mask -->
  <g mask="url(#rounded)">
    <g transform="translate(160,120) scale(0.6)">
      <rect width="1024" height="1024" fill="transparent"/>
      <path d="M240 820 L450 220 L510 220 L300 820 Z" fill="url(#shadow)"/>
      <path d="M784 820 L574 220 L514 220 L724 820 Z" fill="url(#shadow)"/>
      <path d="M380 740 L512 320 L644 740 Z" fill="white"/>
      <path d="M260 560 C360 500, 420 480, 512 500 C604 520, 660 560, 760 520 L740 600 C660 640, 604 620, 512 600 C420 580, 360 620, 260 560 Z"
            fill="url(#accent)" />
    </g>
  </g>
</svg>
